<svg width="672.5" height="1627.5" viewBox="0 0 672.5 1627.5" xmlns="http://www.w3.org/2000/svg">
<style>
    svg {
        font-family: SFMono-Regular,Consolas,Liberation Mono,Menlo,monospace;
        font-size: 14px;
        font-kerning: normal;
        text-rendering: optimizeLegibility;
        fill: #24292e;
    }

    rect {
        fill: #f6f8fa;
    }

    .held {
        fill: #fdd;
    }

    .combo_hold {
        fill: #fdd;
    }

    .combo {
        fill: #B6F2F2;
    }
    
    .number{
        fill: #bfc2c7
    }
</style>
<rect rx="6" ry="6" x="29.5" y="24.5" width="55" height="45" class="number" />
<text text-anchor="middle" dominant-baseline="middle" x="57.0" y="47.0">1</text>
<rect rx="6" ry="6" x="88.5" y="24.5" width="55" height="45" class="number" />
<text text-anchor="middle" dominant-baseline="middle" x="116.0" y="47.0">2</text>
<rect rx="6" ry="6" x="147.5" y="24.5" width="55" height="45" class="number" />
<text text-anchor="middle" dominant-baseline="middle" x="175.0" y="47.0">3</text>
<rect rx="6" ry="6" x="206.5" y="24.5" width="55" height="45" class="number" />
<text text-anchor="middle" dominant-baseline="middle" x="234.0" y="47.0">4</text>
<rect rx="6" ry="6" x="265.5" y="24.5" width="55" height="45" class="number" />
<text text-anchor="middle" dominant-baseline="middle" x="293.0" y="47.0">5</text>
<rect rx="6" ry="6" x="29.5" y="73.5" width="55" height="45" class="" />
<text text-anchor="middle" dominant-baseline="middle" x="57.0" y="96.0">q</text>
<rect rx="6" ry="6" x="88.5" y="73.5" width="55" height="45" class="" />
<text text-anchor="middle" dominant-baseline="middle" x="116.0" y="96.0">w</text>
<rect rx="6" ry="6" x="147.5" y="73.5" width="55" height="45" class="" />
<text text-anchor="middle" dominant-baseline="middle" x="175.0" y="96.0">e</text>
<rect rx="6" ry="6" x="206.5" y="73.5" width="55" height="45" class="" />
<text text-anchor="middle" dominant-baseline="middle" x="234.0" y="96.0">r</text>
<rect rx="6" ry="6" x="265.5" y="73.5" width="55" height="45" class="" />
<text text-anchor="middle" dominant-baseline="middle" x="293.0" y="96.0">t</text>
<rect rx="6" ry="6" x="29.5" y="122.5" width="55" height="45" class="" />
<text text-anchor="middle" dominant-baseline="middle" x="57.0" y="145.0">a</text>
<rect rx="6" ry="6" x="88.5" y="122.5" width="55" height="45" class="" />
<text text-anchor="middle" dominant-baseline="middle" x="116.0" y="145.0">s</text>
<rect rx="6" ry="6" x="147.5" y="122.5" width="55" height="45" class="" />
<text text-anchor="middle" dominant-baseline="middle" x="175.0" y="145.0">d</text>
<rect rx="6" ry="6" x="206.5" y="122.5" width="55" height="45" class="" />
<text text-anchor="middle" dominant-baseline="middle" x="234.0" y="145.0">f</text>
<rect rx="6" ry="6" x="265.5" y="122.5" width="55" height="45" class="" />
<text text-anchor="middle" dominant-baseline="middle" x="293.0" y="145.0">g</text>
<rect rx="6" ry="6" x="29.5" y="171.5" width="55" height="45" class="" />
<text text-anchor="middle" dominant-baseline="middle" x="57.0" y="194.0">z</text>
<rect rx="6" ry="6" x="88.5" y="171.5" width="55" height="45" class="" />
<text text-anchor="middle" dominant-baseline="middle" x="116.0" y="194.0">x</text>
<rect rx="6" ry="6" x="147.5" y="171.5" width="55" height="45" class="" />
<text text-anchor="middle" dominant-baseline="middle" x="175.0" y="194.0">c</text>
<rect rx="6" ry="6" x="206.5" y="171.5" width="55" height="45" class="" />
<text text-anchor="middle" dominant-baseline="middle" x="234.0" y="194.0">v</text>
<rect rx="6" ry="6" x="265.5" y="171.5" width="55" height="45" class="" />
<text text-anchor="middle" dominant-baseline="middle" x="293.0" y="194.0">b</text>
<rect rx="6" ry="6" x="352.0" y="24.5" width="55" height="45" class="number" />
<text text-anchor="middle" dominant-baseline="middle" x="379.5" y="47.0">6</text>
<rect rx="6" ry="6" x="411.0" y="24.5" width="55" height="45" class="number" />
<text text-anchor="middle" dominant-baseline="middle" x="438.5" y="47.0">7</text>
<rect rx="6" ry="6" x="470.0" y="24.5" width="55" height="45" class="number" />
<text text-anchor="middle" dominant-baseline="middle" x="497.5" y="47.0">8</text>
<rect rx="6" ry="6" x="529.0" y="24.5" width="55" height="45" class="number" />
<text text-anchor="middle" dominant-baseline="middle" x="556.5" y="47.0">9</text>
<rect rx="6" ry="6" x="588.0" y="24.5" width="55" height="45" class="number" />
<text text-anchor="middle" dominant-baseline="middle" x="615.5" y="47.0">0</text>
<rect rx="6" ry="6" x="352.0" y="73.5" width="55" height="45" class="" />
<text text-anchor="middle" dominant-baseline="middle" x="379.5" y="96.0">y</text>
<rect rx="6" ry="6" x="411.0" y="73.5" width="55" height="45" class="" />
<text text-anchor="middle" dominant-baseline="middle" x="438.5" y="96.0">u</text>
<rect rx="6" ry="6" x="470.0" y="73.5" width="55" height="45" class="" />
<text text-anchor="middle" dominant-baseline="middle" x="497.5" y="96.0">i</text>
<rect rx="6" ry="6" x="529.0" y="73.5" width="55" height="45" class="" />
<text text-anchor="middle" dominant-baseline="middle" x="556.5" y="96.0">o</text>
<rect rx="6" ry="6" x="588.0" y="73.5" width="55" height="45" class="" />
<text text-anchor="middle" dominant-baseline="middle" x="615.5" y="96.0">p</text>
<rect rx="6" ry="6" x="352.0" y="122.5" width="55" height="45" class="" />
<text text-anchor="middle" dominant-baseline="middle" x="379.5" y="145.0">j</text>
<rect rx="6" ry="6" x="411.0" y="122.5" width="55" height="45" class="" />
<text text-anchor="middle" dominant-baseline="middle" x="438.5" y="145.0">j</text>
<rect rx="6" ry="6" x="470.0" y="122.5" width="55" height="45" class="" />
<text text-anchor="middle" dominant-baseline="middle" x="497.5" y="145.0">k</text>
<rect rx="6" ry="6" x="529.0" y="122.5" width="55" height="45" class="" />
<text text-anchor="middle" dominant-baseline="middle" x="556.5" y="145.0">l</text>
<rect rx="6" ry="6" x="588.0" y="122.5" width="55" height="45" class="" />
<text text-anchor="middle" dominant-baseline="middle" x="615.5" y="145.0">;</text>
<rect rx="6" ry="6" x="352.0" y="171.5" width="55" height="45" class="" />
<text text-anchor="middle" dominant-baseline="middle" x="379.5" y="194.0">m</text>
<rect rx="6" ry="6" x="411.0" y="171.5" width="55" height="45" class="" />
<text text-anchor="middle" dominant-baseline="middle" x="438.5" y="194.0">n</text>
<rect rx="6" ry="6" x="470.0" y="171.5" width="55" height="45" class="" />
<text text-anchor="middle" dominant-baseline="middle" x="497.5" y="194.0">,</text>
<rect rx="6" ry="6" x="529.0" y="171.5" width="55" height="45" class="" />
<text text-anchor="middle" dominant-baseline="middle" x="556.5" y="194.0">.</text>
<rect rx="6" ry="6" x="588.0" y="171.5" width="55" height="45" class="" />
<text text-anchor="middle" dominant-baseline="middle" x="615.5" y="194.0">/</text>
<rect rx="6" ry="6" x="147.5" y="220.5" width="55" height="45" class="" />
<text text-anchor="middle" dominant-baseline="middle" x="175.0" y="243.0">del</text>
<rect rx="6" ry="6" x="206.5" y="220.5" width="55" height="45" class="" />
<text text-anchor="middle" dominant-baseline="middle" x="234.0" y="243.0">bkspc</text>
<rect rx="6" ry="6" x="265.5" y="220.5" width="55" height="45" class="" />
<text text-anchor="middle" dominant-baseline="middle" x="293.0" y="243.0">esc</text>
<rect rx="6" ry="6" x="352.0" y="220.5" width="55" height="45" class="" />
<text text-anchor="middle" dominant-baseline="middle" x="379.5" y="243.0">enter</text>
<rect rx="6" ry="6" x="411.0" y="220.5" width="55" height="45" class="" />
<text text-anchor="middle" dominant-baseline="middle" x="438.5" y="243.0">space</text>
<rect rx="6" ry="6" x="470.0" y="220.5" width="55" height="45" class="" />
<text text-anchor="middle" dominant-baseline="middle" x="497.5" y="243.0">tab</text>
<rect rx="6" ry="6" x="29.5" y="292.0" width="55" height="45" class="number" />
<text text-anchor="middle" dominant-baseline="middle" x="57.0" y="314.5">1</text>
<rect rx="6" ry="6" x="88.5" y="292.0" width="55" height="45" class="number" />
<text text-anchor="middle" dominant-baseline="middle" x="116.0" y="314.5">2</text>
<rect rx="6" ry="6" x="147.5" y="292.0" width="55" height="45" class="number" />
<text text-anchor="middle" dominant-baseline="middle" x="175.0" y="314.5">3</text>
<rect rx="6" ry="6" x="206.5" y="292.0" width="55" height="45" class="number" />
<text text-anchor="middle" dominant-baseline="middle" x="234.0" y="314.5">4</text>
<rect rx="6" ry="6" x="265.5" y="292.0" width="55" height="45" class="number" />
<text text-anchor="middle" dominant-baseline="middle" x="293.0" y="314.5">5</text>
<rect rx="6" ry="6" x="29.5" y="341.0" width="55" height="45" class="" />
<text text-anchor="middle" dominant-baseline="middle" x="57.0" y="363.5">q</text>
<rect rx="6" ry="6" x="88.5" y="341.0" width="55" height="45" class="combo" />
<text text-anchor="middle" dominant-baseline="middle" x="116.0" y="363.5">{</text>
<rect rx="6" ry="6" x="147.5" y="341.0" width="55" height="45" class="combo" />
<text text-anchor="middle" dominant-baseline="middle" x="175.0" y="363.5">{</text>
<path fill="none" stroke="#f5a658" stroke-width="4" stroke-linecap="round" d="M173.0,348.5 A55,55 0,0,0 118.0,348.5" />
<rect rx="6" ry="6" x="206.5" y="341.0" width="55" height="45" class="" />
<text text-anchor="middle" dominant-baseline="middle" x="234.0" y="363.5">r</text>
<rect rx="6" ry="6" x="265.5" y="341.0" width="55" height="45" class="" />
<text text-anchor="middle" dominant-baseline="middle" x="293.0" y="363.5">t</text>
<rect rx="6" ry="6" x="29.5" y="390.0" width="55" height="45" class="" />
<text text-anchor="middle" dominant-baseline="middle" x="57.0" y="412.5">a</text>
<rect rx="6" ry="6" x="88.5" y="390.0" width="55" height="45" class="combo" />
<text text-anchor="middle" dominant-baseline="middle" x="116.0" y="412.5">[</text>
<rect rx="6" ry="6" x="147.5" y="390.0" width="55" height="45" class="combo" />
<text text-anchor="middle" dominant-baseline="middle" x="175.0" y="412.5">[</text>
<path fill="none" stroke="#f5a658" stroke-width="4" stroke-linecap="round" d="M173.0,397.5 A55,55 0,0,0 118.0,397.5" />
<rect rx="6" ry="6" x="206.5" y="390.0" width="55" height="45" class="" />
<text text-anchor="middle" dominant-baseline="middle" x="234.0" y="412.5">f</text>
<rect rx="6" ry="6" x="265.5" y="390.0" width="55" height="45" class="" />
<text text-anchor="middle" dominant-baseline="middle" x="293.0" y="412.5">g</text>
<rect rx="6" ry="6" x="29.5" y="439.0" width="55" height="45" class="" />
<text text-anchor="middle" dominant-baseline="middle" x="57.0" y="461.5">z</text>
<rect rx="6" ry="6" x="88.5" y="439.0" width="55" height="45" class="combo" />
<text text-anchor="middle" dominant-baseline="middle" x="116.0" y="461.5">`</text>
<rect rx="6" ry="6" x="147.5" y="439.0" width="55" height="45" class="combo" />
<text text-anchor="middle" dominant-baseline="middle" x="175.0" y="461.5">`</text>
<path fill="none" stroke="#f5a658" stroke-width="4" stroke-linecap="round" d="M173.0,446.5 A55,55 0,0,0 118.0,446.5" />
<rect rx="6" ry="6" x="206.5" y="439.0" width="55" height="45" class="" />
<text text-anchor="middle" dominant-baseline="middle" x="234.0" y="461.5">v</text>
<rect rx="6" ry="6" x="265.5" y="439.0" width="55" height="45" class="" />
<text text-anchor="middle" dominant-baseline="middle" x="293.0" y="461.5">b</text>
<rect rx="6" ry="6" x="352.0" y="292.0" width="55" height="45" class="number" />
<text text-anchor="middle" dominant-baseline="middle" x="379.5" y="314.5">6</text>
<rect rx="6" ry="6" x="411.0" y="292.0" width="55" height="45" class="number" />
<text text-anchor="middle" dominant-baseline="middle" x="438.5" y="314.5">7</text>
<rect rx="6" ry="6" x="470.0" y="292.0" width="55" height="45" class="number" />
<text text-anchor="middle" dominant-baseline="middle" x="497.5" y="314.5">8</text>
<rect rx="6" ry="6" x="529.0" y="292.0" width="55" height="45" class="number" />
<text text-anchor="middle" dominant-baseline="middle" x="556.5" y="314.5">9</text>
<rect rx="6" ry="6" x="588.0" y="292.0" width="55" height="45" class="number" />
<text text-anchor="middle" dominant-baseline="middle" x="615.5" y="314.5">0</text>
<rect rx="6" ry="6" x="352.0" y="341.0" width="55" height="45" class="" />
<text text-anchor="middle" dominant-baseline="middle" x="379.5" y="363.5">y</text>
<rect rx="6" ry="6" x="411.0" y="341.0" width="55" height="45" class="" />
<text text-anchor="middle" dominant-baseline="middle" x="438.5" y="363.5">u</text>
<rect rx="6" ry="6" x="470.0" y="341.0" width="55" height="45" class="combo" />
<text text-anchor="middle" dominant-baseline="middle" x="497.5" y="363.5">=</text>
<rect rx="6" ry="6" x="529.0" y="341.0" width="55" height="45" class="combo" />
<text text-anchor="middle" dominant-baseline="middle" x="556.5" y="363.5">=</text>
<path fill="none" stroke="#f5a658" stroke-width="4" stroke-linecap="round" d="M554.5,348.5 A55,55 0,0,0 499.5,348.5" />
<rect rx="6" ry="6" x="588.0" y="341.0" width="55" height="45" class="" />
<text text-anchor="middle" dominant-baseline="middle" x="615.5" y="363.5">p</text>
<rect rx="6" ry="6" x="352.0" y="390.0" width="55" height="45" class="" />
<text text-anchor="middle" dominant-baseline="middle" x="379.5" y="412.5">j</text>
<rect rx="6" ry="6" x="411.0" y="390.0" width="55" height="45" class="" />
<text text-anchor="middle" dominant-baseline="middle" x="438.5" y="412.5">j</text>
<rect rx="6" ry="6" x="470.0" y="390.0" width="55" height="45" class="combo" />
<text text-anchor="middle" dominant-baseline="middle" x="497.5" y="412.5">'</text>
<rect rx="6" ry="6" x="529.0" y="390.0" width="55" height="45" class="combo" />
<text text-anchor="middle" dominant-baseline="middle" x="556.5" y="412.5">'</text>
<path fill="none" stroke="#f5a658" stroke-width="4" stroke-linecap="round" d="M554.5,397.5 A55,55 0,0,0 499.5,397.5" />
<rect rx="6" ry="6" x="588.0" y="390.0" width="55" height="45" class="" />
<text text-anchor="middle" dominant-baseline="middle" x="615.5" y="412.5">;</text>
<rect rx="6" ry="6" x="352.0" y="439.0" width="55" height="45" class="" />
<text text-anchor="middle" dominant-baseline="middle" x="379.5" y="461.5">m</text>
<rect rx="6" ry="6" x="411.0" y="439.0" width="55" height="45" class="" />
<text text-anchor="middle" dominant-baseline="middle" x="438.5" y="461.5">n</text>
<rect rx="6" ry="6" x="470.0" y="439.0" width="55" height="45" class="combo" />
<text text-anchor="middle" dominant-baseline="middle" x="497.5" y="461.5">\</text>
<rect rx="6" ry="6" x="529.0" y="439.0" width="55" height="45" class="combo" />
<text text-anchor="middle" dominant-baseline="middle" x="556.5" y="461.5">\</text>
<path fill="none" stroke="#f5a658" stroke-width="4" stroke-linecap="round" d="M554.5,446.5 A55,55 0,0,0 499.5,446.5" />
<rect rx="6" ry="6" x="588.0" y="439.0" width="55" height="45" class="" />
<text text-anchor="middle" dominant-baseline="middle" x="615.5" y="461.5">/</text>
<rect rx="6" ry="6" x="147.5" y="488.0" width="55" height="45" class="" />
<text text-anchor="middle" dominant-baseline="middle" x="175.0" y="510.5">del</text>
<rect rx="6" ry="6" x="206.5" y="488.0" width="55" height="45" class="" />
<text text-anchor="middle" dominant-baseline="middle" x="234.0" y="510.5">bkspc</text>
<rect rx="6" ry="6" x="265.5" y="488.0" width="55" height="45" class="" />
<text text-anchor="middle" dominant-baseline="middle" x="293.0" y="510.5">esc</text>
<rect rx="6" ry="6" x="352.0" y="488.0" width="55" height="45" class="" />
<text text-anchor="middle" dominant-baseline="middle" x="379.5" y="510.5">enter</text>
<rect rx="6" ry="6" x="411.0" y="488.0" width="55" height="45" class="" />
<text text-anchor="middle" dominant-baseline="middle" x="438.5" y="510.5">space</text>
<rect rx="6" ry="6" x="470.0" y="488.0" width="55" height="45" class="" />
<text text-anchor="middle" dominant-baseline="middle" x="497.5" y="510.5">tab</text>
<rect rx="6" ry="6" x="29.5" y="559.5" width="55" height="45" class="number" />
<text text-anchor="middle" dominant-baseline="middle" x="57.0" y="582.0">1</text>
<rect rx="6" ry="6" x="88.5" y="559.5" width="55" height="45" class="number" />
<text text-anchor="middle" dominant-baseline="middle" x="116.0" y="582.0">2</text>
<rect rx="6" ry="6" x="147.5" y="559.5" width="55" height="45" class="number" />
<text text-anchor="middle" dominant-baseline="middle" x="175.0" y="582.0">3</text>
<rect rx="6" ry="6" x="206.5" y="559.5" width="55" height="45" class="number" />
<text text-anchor="middle" dominant-baseline="middle" x="234.0" y="582.0">4</text>
<rect rx="6" ry="6" x="265.5" y="559.5" width="55" height="45" class="number" />
<text text-anchor="middle" dominant-baseline="middle" x="293.0" y="582.0">5</text>
<rect rx="6" ry="6" x="29.5" y="608.5" width="55" height="45" class="" />
<text text-anchor="middle" dominant-baseline="middle" x="57.0" y="631.0">q</text>
<rect rx="6" ry="6" x="88.5" y="608.5" width="55" height="45" class="" />
<text text-anchor="middle" dominant-baseline="middle" x="116.0" y="631.0">w</text>
<rect rx="6" ry="6" x="147.5" y="608.5" width="55" height="45" class="combo" />
<text text-anchor="middle" dominant-baseline="middle" x="175.0" y="631.0">}</text>
<rect rx="6" ry="6" x="206.5" y="608.5" width="55" height="45" class="combo" />
<text text-anchor="middle" dominant-baseline="middle" x="234.0" y="631.0">}</text>
<path fill="none" stroke="#f5a658" stroke-width="4" stroke-linecap="round" d="M232.0,616.0 A55,55 0,0,0 177.0,616.0" />
<rect rx="6" ry="6" x="265.5" y="608.5" width="55" height="45" class="" />
<text text-anchor="middle" dominant-baseline="middle" x="293.0" y="631.0">t</text>
<rect rx="6" ry="6" x="29.5" y="657.5" width="55" height="45" class="" />
<text text-anchor="middle" dominant-baseline="middle" x="57.0" y="680.0">a</text>
<rect rx="6" ry="6" x="88.5" y="657.5" width="55" height="45" class="" />
<text text-anchor="middle" dominant-baseline="middle" x="116.0" y="680.0">s</text>
<rect rx="6" ry="6" x="147.5" y="657.5" width="55" height="45" class="combo" />
<text text-anchor="middle" dominant-baseline="middle" x="175.0" y="680.0">]</text>
<rect rx="6" ry="6" x="206.5" y="657.5" width="55" height="45" class="combo" />
<text text-anchor="middle" dominant-baseline="middle" x="234.0" y="680.0">]</text>
<path fill="none" stroke="#f5a658" stroke-width="4" stroke-linecap="round" d="M232.0,665.0 A55,55 0,0,0 177.0,665.0" />
<rect rx="6" ry="6" x="265.5" y="657.5" width="55" height="45" class="" />
<text text-anchor="middle" dominant-baseline="middle" x="293.0" y="680.0">g</text>
<rect rx="6" ry="6" x="29.5" y="706.5" width="55" height="45" class="" />
<text text-anchor="middle" dominant-baseline="middle" x="57.0" y="729.0">z</text>
<rect rx="6" ry="6" x="88.5" y="706.5" width="55" height="45" class="" />
<text text-anchor="middle" dominant-baseline="middle" x="116.0" y="729.0">x</text>
<rect rx="6" ry="6" x="147.5" y="706.5" width="55" height="45" class="combo" />
<text text-anchor="middle" dominant-baseline="middle" x="175.0" y="729.0">~</text>
<rect rx="6" ry="6" x="206.5" y="706.5" width="55" height="45" class="combo" />
<text text-anchor="middle" dominant-baseline="middle" x="234.0" y="729.0">~</text>
<path fill="none" stroke="#f5a658" stroke-width="4" stroke-linecap="round" d="M232.0,714.0 A55,55 0,0,0 177.0,714.0" />
<rect rx="6" ry="6" x="265.5" y="706.5" width="55" height="45" class="" />
<text text-anchor="middle" dominant-baseline="middle" x="293.0" y="729.0">b</text>
<rect rx="6" ry="6" x="352.0" y="559.5" width="55" height="45" class="number" />
<text text-anchor="middle" dominant-baseline="middle" x="379.5" y="582.0">6</text>
<rect rx="6" ry="6" x="411.0" y="559.5" width="55" height="45" class="number" />
<text text-anchor="middle" dominant-baseline="middle" x="438.5" y="582.0">7</text>
<rect rx="6" ry="6" x="470.0" y="559.5" width="55" height="45" class="number" />
<text text-anchor="middle" dominant-baseline="middle" x="497.5" y="582.0">8</text>
<rect rx="6" ry="6" x="529.0" y="559.5" width="55" height="45" class="number" />
<text text-anchor="middle" dominant-baseline="middle" x="556.5" y="582.0">9</text>
<rect rx="6" ry="6" x="588.0" y="559.5" width="55" height="45" class="number" />
<text text-anchor="middle" dominant-baseline="middle" x="615.5" y="582.0">0</text>
<rect rx="6" ry="6" x="352.0" y="608.5" width="55" height="45" class="" />
<text text-anchor="middle" dominant-baseline="middle" x="379.5" y="631.0">y</text>
<rect rx="6" ry="6" x="411.0" y="608.5" width="55" height="45" class="combo" />
<text text-anchor="middle" dominant-baseline="middle" x="438.5" y="631.0">-</text>
<rect rx="6" ry="6" x="470.0" y="608.5" width="55" height="45" class="combo" />
<text text-anchor="middle" dominant-baseline="middle" x="497.5" y="631.0">-</text>
<path fill="none" stroke="#f5a658" stroke-width="4" stroke-linecap="round" d="M495.5,616.0 A55,55 0,0,0 440.5,616.0" />
<rect rx="6" ry="6" x="529.0" y="608.5" width="55" height="45" class="" />
<text text-anchor="middle" dominant-baseline="middle" x="556.5" y="631.0">o</text>
<rect rx="6" ry="6" x="588.0" y="608.5" width="55" height="45" class="" />
<text text-anchor="middle" dominant-baseline="middle" x="615.5" y="631.0">p</text>
<rect rx="6" ry="6" x="352.0" y="657.5" width="55" height="45" class="" />
<text text-anchor="middle" dominant-baseline="middle" x="379.5" y="680.0">j</text>
<rect rx="6" ry="6" x="411.0" y="657.5" width="55" height="45" class="" />
<text text-anchor="middle" dominant-baseline="middle" x="438.5" y="680.0">j</text>
<rect rx="6" ry="6" x="470.0" y="657.5" width="55" height="45" class="" />
<text text-anchor="middle" dominant-baseline="middle" x="497.5" y="680.0">k</text>
<rect rx="6" ry="6" x="529.0" y="657.5" width="55" height="45" class="" />
<text text-anchor="middle" dominant-baseline="middle" x="556.5" y="680.0">l</text>
<rect rx="6" ry="6" x="588.0" y="657.5" width="55" height="45" class="" />
<text text-anchor="middle" dominant-baseline="middle" x="615.5" y="680.0">;</text>
<rect rx="6" ry="6" x="352.0" y="706.5" width="55" height="45" class="" />
<text text-anchor="middle" dominant-baseline="middle" x="379.5" y="729.0">m</text>
<rect rx="6" ry="6" x="411.0" y="706.5" width="55" height="45" class="" />
<text text-anchor="middle" dominant-baseline="middle" x="438.5" y="729.0">n</text>
<rect rx="6" ry="6" x="470.0" y="706.5" width="55" height="45" class="" />
<text text-anchor="middle" dominant-baseline="middle" x="497.5" y="729.0">,</text>
<rect rx="6" ry="6" x="529.0" y="706.5" width="55" height="45" class="" />
<text text-anchor="middle" dominant-baseline="middle" x="556.5" y="729.0">.</text>
<rect rx="6" ry="6" x="588.0" y="706.5" width="55" height="45" class="" />
<text text-anchor="middle" dominant-baseline="middle" x="615.5" y="729.0">/</text>
<rect rx="6" ry="6" x="147.5" y="755.5" width="55" height="45" class="" />
<text text-anchor="middle" dominant-baseline="middle" x="175.0" y="778.0">del</text>
<rect rx="6" ry="6" x="206.5" y="755.5" width="55" height="45" class="" />
<text text-anchor="middle" dominant-baseline="middle" x="234.0" y="778.0">bkspc</text>
<rect rx="6" ry="6" x="265.5" y="755.5" width="55" height="45" class="" />
<text text-anchor="middle" dominant-baseline="middle" x="293.0" y="778.0">esc</text>
<rect rx="6" ry="6" x="352.0" y="755.5" width="55" height="45" class="" />
<text text-anchor="middle" dominant-baseline="middle" x="379.5" y="778.0">enter</text>
<rect rx="6" ry="6" x="411.0" y="755.5" width="55" height="45" class="" />
<text text-anchor="middle" dominant-baseline="middle" x="438.5" y="778.0">space</text>
<rect rx="6" ry="6" x="470.0" y="755.5" width="55" height="45" class="" />
<text text-anchor="middle" dominant-baseline="middle" x="497.5" y="778.0">tab</text>
<rect rx="6" ry="6" x="29.5" y="827.0" width="55" height="45" class="number" />
<text text-anchor="middle" dominant-baseline="middle" x="57.0" y="849.5">f1</text>
<rect rx="6" ry="6" x="88.5" y="827.0" width="55" height="45" class="number" />
<text text-anchor="middle" dominant-baseline="middle" x="116.0" y="849.5">f2</text>
<rect rx="6" ry="6" x="147.5" y="827.0" width="55" height="45" class="number" />
<text text-anchor="middle" dominant-baseline="middle" x="175.0" y="849.5">f3</text>
<rect rx="6" ry="6" x="206.5" y="827.0" width="55" height="45" class="number" />
<text text-anchor="middle" dominant-baseline="middle" x="234.0" y="849.5">f4</text>
<rect rx="6" ry="6" x="265.5" y="827.0" width="55" height="45" class="number" />
<text text-anchor="middle" dominant-baseline="middle" x="293.0" y="849.5">f5</text>
<rect rx="6" ry="6" x="29.5" y="876.0" width="55" height="45" class="" />
<rect rx="6" ry="6" x="88.5" y="876.0" width="55" height="45" class="" />
<rect rx="6" ry="6" x="147.5" y="876.0" width="55" height="45" class="" />
<rect rx="6" ry="6" x="206.5" y="876.0" width="55" height="45" class="" />
<rect rx="6" ry="6" x="265.5" y="876.0" width="55" height="45" class="number" />
<text text-anchor="middle" dominant-baseline="middle" x="293.0" y="898.5">f11</text>
<rect rx="6" ry="6" x="29.5" y="925.0" width="55" height="45" class="" />
<text text-anchor="middle" dominant-baseline="middle" x="57.0" y="947.5">ctrl</text>
<rect rx="6" ry="6" x="88.5" y="925.0" width="55" height="45" class="" />
<text text-anchor="middle" dominant-baseline="middle" x="116.0" y="947.5">alt</text>
<rect rx="6" ry="6" x="147.5" y="925.0" width="55" height="45" class="" />
<text text-anchor="middle" dominant-baseline="middle" x="175.0" y="947.5">cmd</text>
<rect rx="6" ry="6" x="206.5" y="925.0" width="55" height="45" class="" />
<text text-anchor="middle" dominant-baseline="middle" x="234.0" y="947.5">shift</text>
<rect rx="6" ry="6" x="265.5" y="925.0" width="55" height="45" class="" />
<rect rx="6" ry="6" x="29.5" y="974.0" width="55" height="45" class="" />
<rect rx="6" ry="6" x="88.5" y="974.0" width="55" height="45" class="" />
<rect rx="6" ry="6" x="147.5" y="974.0" width="55" height="45" class="" />
<rect rx="6" ry="6" x="206.5" y="974.0" width="55" height="45" class="" />
<rect rx="6" ry="6" x="265.5" y="974.0" width="55" height="45" class="" />
<rect rx="6" ry="6" x="352.0" y="827.0" width="55" height="45" class="number" />
<text text-anchor="middle" dominant-baseline="middle" x="379.5" y="849.5">f6</text>
<rect rx="6" ry="6" x="411.0" y="827.0" width="55" height="45" class="number" />
<text text-anchor="middle" dominant-baseline="middle" x="438.5" y="849.5">f7</text>
<rect rx="6" ry="6" x="470.0" y="827.0" width="55" height="45" class="number" />
<text text-anchor="middle" dominant-baseline="middle" x="497.5" y="849.5">f8</text>
<rect rx="6" ry="6" x="529.0" y="827.0" width="55" height="45" class="number" />
<text text-anchor="middle" dominant-baseline="middle" x="556.5" y="849.5">f9</text>
<rect rx="6" ry="6" x="588.0" y="827.0" width="55" height="45" class="number" />
<text text-anchor="middle" dominant-baseline="middle" x="615.5" y="849.5">f10</text>
<rect rx="6" ry="6" x="352.0" y="876.0" width="55" height="45" class="number" />
<text text-anchor="middle" dominant-baseline="middle" x="379.5" y="898.5">f12</text>
<rect rx="6" ry="6" x="411.0" y="876.0" width="55" height="45" class="" />
<rect rx="6" ry="6" x="470.0" y="876.0" width="55" height="45" class="" />
<rect rx="6" ry="6" x="529.0" y="876.0" width="55" height="45" class="" />
<rect rx="6" ry="6" x="588.0" y="876.0" width="55" height="45" class="" />
<rect rx="6" ry="6" x="352.0" y="925.0" width="55" height="45" class="" />
<rect rx="6" ry="6" x="411.0" y="925.0" width="55" height="45" class="" />
<text text-anchor="middle" dominant-baseline="middle" x="438.5" y="947.5">shift</text>
<rect rx="6" ry="6" x="470.0" y="925.0" width="55" height="45" class="" />
<text text-anchor="middle" dominant-baseline="middle" x="497.5" y="947.5">cmd</text>
<rect rx="6" ry="6" x="529.0" y="925.0" width="55" height="45" class="" />
<text text-anchor="middle" dominant-baseline="middle" x="556.5" y="947.5">alt</text>
<rect rx="6" ry="6" x="588.0" y="925.0" width="55" height="45" class="" />
<text text-anchor="middle" dominant-baseline="middle" x="615.5" y="947.5">ctrl</text>
<rect rx="6" ry="6" x="352.0" y="974.0" width="55" height="45" class="" />
<rect rx="6" ry="6" x="411.0" y="974.0" width="55" height="45" class="" />
<rect rx="6" ry="6" x="470.0" y="974.0" width="55" height="45" class="" />
<rect rx="6" ry="6" x="529.0" y="974.0" width="55" height="45" class="" />
<rect rx="6" ry="6" x="588.0" y="974.0" width="55" height="45" class="" />
<rect rx="6" ry="6" x="147.5" y="1023.0" width="55" height="45" class="held" />
<text text-anchor="middle" dominant-baseline="middle" x="175.0" y="1045.5">func</text>
<rect rx="6" ry="6" x="206.5" y="1023.0" width="55" height="45" class="" />
<text text-anchor="middle" dominant-baseline="middle" x="234.0" y="1045.5">bkspc</text>
<rect rx="6" ry="6" x="265.5" y="1023.0" width="55" height="45" class="" />
<text text-anchor="middle" dominant-baseline="middle" x="293.0" y="1045.5">esc</text>
<rect rx="6" ry="6" x="352.0" y="1023.0" width="55" height="45" class="" />
<text text-anchor="middle" dominant-baseline="middle" x="379.5" y="1045.5">enter</text>
<rect rx="6" ry="6" x="411.0" y="1023.0" width="55" height="45" class="" />
<text text-anchor="middle" dominant-baseline="middle" x="438.5" y="1045.5">space</text>
<rect rx="6" ry="6" x="470.0" y="1023.0" width="55" height="45" class="held" />
<text text-anchor="middle" dominant-baseline="middle" x="497.5" y="1045.5">func</text>
<rect rx="6" ry="6" x="29.5" y="1094.5" width="55" height="45" class="number" />
<rect rx="6" ry="6" x="88.5" y="1094.5" width="55" height="45" class="number" />
<rect rx="6" ry="6" x="147.5" y="1094.5" width="55" height="45" class="number" />
<rect rx="6" ry="6" x="206.5" y="1094.5" width="55" height="45" class="number" />
<rect rx="6" ry="6" x="265.5" y="1094.5" width="55" height="45" class="number" />
<rect rx="6" ry="6" x="29.5" y="1143.5" width="55" height="45" class="" />
<rect rx="6" ry="6" x="88.5" y="1143.5" width="55" height="45" class="" />
<rect rx="6" ry="6" x="147.5" y="1143.5" width="55" height="45" class="" />
<rect rx="6" ry="6" x="206.5" y="1143.5" width="55" height="45" class="" />
<rect rx="6" ry="6" x="265.5" y="1143.5" width="55" height="45" class="" />
<rect rx="6" ry="6" x="29.5" y="1192.5" width="55" height="45" class="" />
<text text-anchor="middle" dominant-baseline="middle" x="57.0" y="1215.0">ctrl</text>
<rect rx="6" ry="6" x="88.5" y="1192.5" width="55" height="45" class="" />
<text text-anchor="middle" dominant-baseline="middle" x="116.0" y="1215.0">alt</text>
<rect rx="6" ry="6" x="147.5" y="1192.5" width="55" height="45" class="" />
<text text-anchor="middle" dominant-baseline="middle" x="175.0" y="1215.0">cmd</text>
<rect rx="6" ry="6" x="206.5" y="1192.5" width="55" height="45" class="" />
<text text-anchor="middle" dominant-baseline="middle" x="234.0" y="1215.0">shift</text>
<rect rx="6" ry="6" x="265.5" y="1192.5" width="55" height="45" class="" />
<rect rx="6" ry="6" x="29.5" y="1241.5" width="55" height="45" class="" />
<rect rx="6" ry="6" x="88.5" y="1241.5" width="55" height="45" class="" />
<rect rx="6" ry="6" x="147.5" y="1241.5" width="55" height="45" class="" />
<rect rx="6" ry="6" x="206.5" y="1241.5" width="55" height="45" class="" />
<rect rx="6" ry="6" x="265.5" y="1241.5" width="55" height="45" class="" />
<rect rx="6" ry="6" x="352.0" y="1094.5" width="55" height="45" class="number" />
<rect rx="6" ry="6" x="411.0" y="1094.5" width="55" height="45" class="number" />
<text text-anchor="middle" dominant-baseline="middle" x="438.5" y="1108.0">menu</text>
<text text-anchor="middle" dominant-baseline="middle" x="438.5" y="1126.0">bar</text>
<rect rx="6" ry="6" x="470.0" y="1094.5" width="55" height="45" class="number" />
<rect rx="6" ry="6" x="529.0" y="1094.5" width="55" height="45" class="number" />
<rect rx="6" ry="6" x="588.0" y="1094.5" width="55" height="45" class="number" />
<rect rx="6" ry="6" x="352.0" y="1143.5" width="55" height="45" class="" />
<text text-anchor="middle" dominant-baseline="middle" x="379.5" y="1166.0">redo</text>
<rect rx="6" ry="6" x="411.0" y="1143.5" width="55" height="45" class="" />
<text text-anchor="middle" dominant-baseline="middle" x="438.5" y="1166.0">paste</text>
<rect rx="6" ry="6" x="470.0" y="1143.5" width="55" height="45" class="" />
<text text-anchor="middle" dominant-baseline="middle" x="497.5" y="1166.0">copy</text>
<rect rx="6" ry="6" x="529.0" y="1143.5" width="55" height="45" class="" />
<text text-anchor="middle" dominant-baseline="middle" x="556.5" y="1166.0">cut</text>
<rect rx="6" ry="6" x="588.0" y="1143.5" width="55" height="45" class="" />
<text text-anchor="middle" dominant-baseline="middle" x="615.5" y="1166.0">undo</text>
<rect rx="6" ry="6" x="352.0" y="1192.5" width="55" height="45" class="" />
<text text-anchor="middle" dominant-baseline="middle" x="379.5" y="1206.0">caps</text>
<text text-anchor="middle" dominant-baseline="middle" x="379.5" y="1224.0">lock</text>
<rect rx="6" ry="6" x="411.0" y="1192.5" width="55" height="45" class="" />
<text text-anchor="middle" dominant-baseline="middle" x="438.5" y="1215.0">left</text>
<rect rx="6" ry="6" x="470.0" y="1192.5" width="55" height="45" class="" />
<text text-anchor="middle" dominant-baseline="middle" x="497.5" y="1215.0">down</text>
<rect rx="6" ry="6" x="529.0" y="1192.5" width="55" height="45" class="" />
<text text-anchor="middle" dominant-baseline="middle" x="556.5" y="1215.0">up</text>
<rect rx="6" ry="6" x="588.0" y="1192.5" width="55" height="45" class="" />
<text text-anchor="middle" dominant-baseline="middle" x="615.5" y="1215.0">right</text>
<rect rx="6" ry="6" x="352.0" y="1241.5" width="55" height="45" class="" />
<text text-anchor="middle" dominant-baseline="middle" x="379.5" y="1264.0">ins</text>
<rect rx="6" ry="6" x="411.0" y="1241.5" width="55" height="45" class="" />
<text text-anchor="middle" dominant-baseline="middle" x="438.5" y="1264.0">home</text>
<rect rx="6" ry="6" x="470.0" y="1241.5" width="55" height="45" class="" />
<text text-anchor="middle" dominant-baseline="middle" x="497.5" y="1255.0">page</text>
<text text-anchor="middle" dominant-baseline="middle" x="497.5" y="1273.0">down</text>
<rect rx="6" ry="6" x="529.0" y="1241.5" width="55" height="45" class="" />
<text text-anchor="middle" dominant-baseline="middle" x="556.5" y="1255.0">page</text>
<text text-anchor="middle" dominant-baseline="middle" x="556.5" y="1273.0">up</text>
<rect rx="6" ry="6" x="588.0" y="1241.5" width="55" height="45" class="" />
<text text-anchor="middle" dominant-baseline="middle" x="615.5" y="1264.0">end</text>
<rect rx="6" ry="6" x="147.5" y="1290.5" width="55" height="45" class="" />
<text text-anchor="middle" dominant-baseline="middle" x="175.0" y="1313.0">del</text>
<rect rx="6" ry="6" x="206.5" y="1290.5" width="55" height="45" class="held" />
<text text-anchor="middle" dominant-baseline="middle" x="234.0" y="1313.0">nav</text>
<rect rx="6" ry="6" x="265.5" y="1290.5" width="55" height="45" class="" />
<text text-anchor="middle" dominant-baseline="middle" x="293.0" y="1313.0">esc</text>
<rect rx="6" ry="6" x="352.0" y="1290.5" width="55" height="45" class="" />
<text text-anchor="middle" dominant-baseline="middle" x="379.5" y="1313.0">enter</text>
<rect rx="6" ry="6" x="411.0" y="1290.5" width="55" height="45" class="" />
<text text-anchor="middle" dominant-baseline="middle" x="438.5" y="1313.0">space</text>
<rect rx="6" ry="6" x="470.0" y="1290.5" width="55" height="45" class="" />
<text text-anchor="middle" dominant-baseline="middle" x="497.5" y="1313.0">tab</text>
<rect rx="6" ry="6" x="29.5" y="1362.0" width="55" height="45" class="number" />
<text text-anchor="middle" dominant-baseline="middle" x="57.0" y="1375.5">bt</text>
<text text-anchor="middle" dominant-baseline="middle" x="57.0" y="1393.5">clear</text>
<rect rx="6" ry="6" x="88.5" y="1362.0" width="55" height="45" class="number" />
<rect rx="6" ry="6" x="147.5" y="1362.0" width="55" height="45" class="number" />
<rect rx="6" ry="6" x="206.5" y="1362.0" width="55" height="45" class="number" />
<rect rx="6" ry="6" x="265.5" y="1362.0" width="55" height="45" class="number" />
<rect rx="6" ry="6" x="29.5" y="1411.0" width="55" height="45" class="" />
<rect rx="6" ry="6" x="88.5" y="1411.0" width="55" height="45" class="" />
<rect rx="6" ry="6" x="147.5" y="1411.0" width="55" height="45" class="" />
<rect rx="6" ry="6" x="206.5" y="1411.0" width="55" height="45" class="" />
<rect rx="6" ry="6" x="265.5" y="1411.0" width="55" height="45" class="" />
<rect rx="6" ry="6" x="29.5" y="1460.0" width="55" height="45" class="" />
<text text-anchor="middle" dominant-baseline="middle" x="57.0" y="1482.5">prev</text>
<rect rx="6" ry="6" x="88.5" y="1460.0" width="55" height="45" class="" />
<text text-anchor="middle" dominant-baseline="middle" x="116.0" y="1473.5">vol</text>
<text text-anchor="middle" dominant-baseline="middle" x="116.0" y="1491.5">down</text>
<rect rx="6" ry="6" x="147.5" y="1460.0" width="55" height="45" class="" />
<text text-anchor="middle" dominant-baseline="middle" x="175.0" y="1473.5">vol</text>
<text text-anchor="middle" dominant-baseline="middle" x="175.0" y="1491.5">up</text>
<rect rx="6" ry="6" x="206.5" y="1460.0" width="55" height="45" class="" />
<text text-anchor="middle" dominant-baseline="middle" x="234.0" y="1482.5">next</text>
<rect rx="6" ry="6" x="265.5" y="1460.0" width="55" height="45" class="" />
<rect rx="6" ry="6" x="29.5" y="1509.0" width="55" height="45" class="" />
<text text-anchor="middle" dominant-baseline="middle" x="57.0" y="1531.5">bt0</text>
<rect rx="6" ry="6" x="88.5" y="1509.0" width="55" height="45" class="" />
<text text-anchor="middle" dominant-baseline="middle" x="116.0" y="1531.5">bt1</text>
<rect rx="6" ry="6" x="147.5" y="1509.0" width="55" height="45" class="" />
<text text-anchor="middle" dominant-baseline="middle" x="175.0" y="1531.5">bt2</text>
<rect rx="6" ry="6" x="206.5" y="1509.0" width="55" height="45" class="" />
<text text-anchor="middle" dominant-baseline="middle" x="234.0" y="1531.5">bt3</text>
<rect rx="6" ry="6" x="265.5" y="1509.0" width="55" height="45" class="" />
<text text-anchor="middle" dominant-baseline="middle" x="293.0" y="1531.5">bt4</text>
<rect rx="6" ry="6" x="352.0" y="1362.0" width="55" height="45" class="number" />
<rect rx="6" ry="6" x="411.0" y="1362.0" width="55" height="45" class="number" />
<rect rx="6" ry="6" x="470.0" y="1362.0" width="55" height="45" class="number" />
<rect rx="6" ry="6" x="529.0" y="1362.0" width="55" height="45" class="number" />
<rect rx="6" ry="6" x="588.0" y="1362.0" width="55" height="45" class="number" />
<rect rx="6" ry="6" x="352.0" y="1411.0" width="55" height="45" class="" />
<rect rx="6" ry="6" x="411.0" y="1411.0" width="55" height="45" class="" />
<rect rx="6" ry="6" x="470.0" y="1411.0" width="55" height="45" class="" />
<rect rx="6" ry="6" x="529.0" y="1411.0" width="55" height="45" class="" />
<rect rx="6" ry="6" x="588.0" y="1411.0" width="55" height="45" class="" />
<rect rx="6" ry="6" x="352.0" y="1460.0" width="55" height="45" class="" />
<text text-anchor="middle" dominant-baseline="middle" x="379.5" y="1482.5">ctrl</text>
<rect rx="6" ry="6" x="411.0" y="1460.0" width="55" height="45" class="" />
<text text-anchor="middle" dominant-baseline="middle" x="438.5" y="1482.5">alt</text>
<rect rx="6" ry="6" x="470.0" y="1460.0" width="55" height="45" class="" />
<text text-anchor="middle" dominant-baseline="middle" x="497.5" y="1482.5">cmd</text>
<rect rx="6" ry="6" x="529.0" y="1460.0" width="55" height="45" class="" />
<text text-anchor="middle" dominant-baseline="middle" x="556.5" y="1482.5">shift</text>
<rect rx="6" ry="6" x="588.0" y="1460.0" width="55" height="45" class="" />
<rect rx="6" ry="6" x="352.0" y="1509.0" width="55" height="45" class="" />
<rect rx="6" ry="6" x="411.0" y="1509.0" width="55" height="45" class="" />
<rect rx="6" ry="6" x="470.0" y="1509.0" width="55" height="45" class="" />
<rect rx="6" ry="6" x="529.0" y="1509.0" width="55" height="45" class="" />
<rect rx="6" ry="6" x="588.0" y="1509.0" width="55" height="45" class="" />
<rect rx="6" ry="6" x="147.5" y="1558.0" width="55" height="45" class="" />
<text text-anchor="middle" dominant-baseline="middle" x="175.0" y="1580.5">stop</text>
<rect rx="6" ry="6" x="206.5" y="1558.0" width="55" height="45" class="" />
<text text-anchor="middle" dominant-baseline="middle" x="234.0" y="1571.5">play</text>
<text text-anchor="middle" dominant-baseline="middle" x="234.0" y="1589.5">pause</text>
<rect rx="6" ry="6" x="265.5" y="1558.0" width="55" height="45" class="" />
<text text-anchor="middle" dominant-baseline="middle" x="293.0" y="1580.5">mute</text>
<rect rx="6" ry="6" x="352.0" y="1558.0" width="55" height="45" class="" />
<text text-anchor="middle" dominant-baseline="middle" x="379.5" y="1580.5">enter</text>
<rect rx="6" ry="6" x="411.0" y="1558.0" width="55" height="45" class="held" />
<text text-anchor="middle" dominant-baseline="middle" x="438.5" y="1580.5">media</text>
<rect rx="6" ry="6" x="470.0" y="1558.0" width="55" height="45" class="" />
<text text-anchor="middle" dominant-baseline="middle" x="497.5" y="1580.5">tab</text>
</svg>
